<?xml version="1.0" encoding="UTF-8"?>
<svg width="24px" height="24px" viewBox="0 0 24 24" xmlns="http://www.w3.org/2000/svg">
  <g fill="none" stroke="currentColor" stroke-width="1.5">
    <path d="M4,10 L20,10 C20.5522847,10 21,10.4477153 21,11 L21,12 C21,12.5522847 20.5522847,13 20,13 L4,13 C3.44771525,13 3,12.5522847 3,12 L3,11 C3,10.4477153 3.44771525,10 4,10 Z" />
    <path d="M5,13 L5,18 C5,19.1045695 5.8954305,20 7,20 L17,20 C18.1045695,20 19,19.1045695 19,18 L19,13" />
    <path d="M12,5 L12,10" />
    <path d="M12,5 C13.1045695,5 14,4.1045695 14,3 C14,1.8954305 13.1045695,1 12,1 C10.8954305,1 10,1.8954305 10,3 C10,4.1045695 10.8954305,5 12,5 Z" />
  </g>
</svg> 