<?xml version="1.0" encoding="UTF-8"?>
<svg width="24px" height="24px" viewBox="0 0 24 24" xmlns="http://www.w3.org/2000/svg">
  <g fill="none" stroke="#ECE7D0" stroke-width="1.5">
    <rect x="1" y="8" width="15" height="12" rx="2" />
    <polyline points="16 12 20 12 23 16 23 20 20 20 20 16 16 16" />
    <path d="M5.5,20 C6.88071187,20 8,18.8807119 8,17.5 C8,16.1192881 6.88071187,15 5.5,15 C4.11928813,15 3,16.1192881 3,17.5 C3,18.8807119 4.11928813,20 5.5,20 Z" />
    <path d="M18.5,20 C19.8807119,20 21,18.8807119 21,17.5 C21,16.1192881 19.8807119,15 18.5,15 C17.1192881,15 16,16.1192881 16,17.5 C16,18.8807119 17.1192881,20 18.5,20 Z" />
    <polyline points="15 8 15 4 21 4 21 8" />
  </g>
</svg> 